# xmcd
#
# Track frame offsets:
#	150
#	20543
#	35353
#	53587
#	73874
#	87354
#	95726
#	103978
#	117145
#	133223
#	140197
#
# Disc length: 2046 seconds
#
# Revision: 0
# Processed by: cddbd v1.5PL3 Copyright (c) Steve Scherf et al.
# Submitted via: dBpowerAMP V4.0
#
DISCID=a307fc0b
DTITLE=Dadi Lalanne - Live Olympia CD2
DYEAR=1900
DGENRE=Jazz
TTITLE0=Tennessee Stud
TTITLE1=Bibi Folk
TTITLE2=Villa Rene Georges
TTITLE3=Je Crie Vers Toi
TTITLE4=Me And Marcel
TTITLE5=Me And Jean Felix
TTITLE6=Circus Rag
TTITLE7=Windy And Warm
TTITLE8=Bluegrass Medley
TTITLE9=Yankee Doodle_Dixie
TTITLE10=Swingy Boogie
EXTD=
EXTT0=
EXTT1=
EXTT2=
EXTT3=
EXTT4=
EXTT5=
EXTT6=
EXTT7=
EXTT8=
EXTT9=
EXTT10=
PLAYORDER=
